<mxfile host="app.diagrams.net" modified="2023-09-11T01:40:04.714Z" agent="Mozilla/5.0 (Windows NT 10.0; Win64; x64) AppleWebKit/537.36 (KHTML, like Gecko) Chrome/116.0.0.0 Safari/537.36" etag="VDwSZ2oBAQPWtQ74yLuY" version="21.7.4" type="device">
  <diagram name="StoreFront" id="F5H7FwwVsMKd3ULcCo0r">
    <mxGraphModel dx="1598" dy="2300" grid="1" gridSize="10" guides="1" tooltips="1" connect="1" arrows="1" fold="1" page="1" pageScale="1" pageWidth="850" pageHeight="1100" math="0" shadow="0">
      <root>
        <mxCell id="0" />
        <mxCell id="1" parent="0" />
        <mxCell id="598ATrLCapaZfz47DnX5-14" style="edgeStyle=orthogonalEdgeStyle;rounded=0;orthogonalLoop=1;jettySize=auto;html=1;entryX=0.5;entryY=0;entryDx=0;entryDy=0;" edge="1" parent="1" source="598ATrLCapaZfz47DnX5-1" target="598ATrLCapaZfz47DnX5-13">
          <mxGeometry relative="1" as="geometry" />
        </mxCell>
        <mxCell id="598ATrLCapaZfz47DnX5-1" value="Store Front Application" style="rounded=1;whiteSpace=wrap;html=1;" vertex="1" parent="1">
          <mxGeometry x="200" y="-60" width="120" height="60" as="geometry" />
        </mxCell>
        <mxCell id="598ATrLCapaZfz47DnX5-6" style="edgeStyle=orthogonalEdgeStyle;rounded=0;orthogonalLoop=1;jettySize=auto;html=1;entryX=0.5;entryY=0;entryDx=0;entryDy=0;" edge="1" parent="1" source="598ATrLCapaZfz47DnX5-2" target="598ATrLCapaZfz47DnX5-3">
          <mxGeometry relative="1" as="geometry">
            <Array as="points">
              <mxPoint x="260" y="220" />
              <mxPoint x="100" y="220" />
            </Array>
          </mxGeometry>
        </mxCell>
        <mxCell id="598ATrLCapaZfz47DnX5-7" style="edgeStyle=orthogonalEdgeStyle;rounded=0;orthogonalLoop=1;jettySize=auto;html=1;entryX=0.5;entryY=0;entryDx=0;entryDy=0;" edge="1" parent="1" source="598ATrLCapaZfz47DnX5-2" target="598ATrLCapaZfz47DnX5-4">
          <mxGeometry relative="1" as="geometry" />
        </mxCell>
        <mxCell id="598ATrLCapaZfz47DnX5-12" style="edgeStyle=orthogonalEdgeStyle;rounded=0;orthogonalLoop=1;jettySize=auto;html=1;entryX=0.5;entryY=0;entryDx=0;entryDy=0;" edge="1" parent="1" source="598ATrLCapaZfz47DnX5-2" target="598ATrLCapaZfz47DnX5-11">
          <mxGeometry relative="1" as="geometry">
            <Array as="points">
              <mxPoint x="260" y="220" />
              <mxPoint x="530" y="220" />
            </Array>
          </mxGeometry>
        </mxCell>
        <mxCell id="598ATrLCapaZfz47DnX5-2" value="Main Menu (inside program loop)" style="rounded=1;whiteSpace=wrap;html=1;" vertex="1" parent="1">
          <mxGeometry x="200" y="140" width="120" height="60" as="geometry" />
        </mxCell>
        <mxCell id="598ATrLCapaZfz47DnX5-9" style="edgeStyle=orthogonalEdgeStyle;rounded=0;orthogonalLoop=1;jettySize=auto;html=1;entryX=0.5;entryY=0;entryDx=0;entryDy=0;" edge="1" parent="1" source="598ATrLCapaZfz47DnX5-3" target="598ATrLCapaZfz47DnX5-8">
          <mxGeometry relative="1" as="geometry" />
        </mxCell>
        <mxCell id="598ATrLCapaZfz47DnX5-3" value="[A] View Full Catalog" style="rounded=1;whiteSpace=wrap;html=1;" vertex="1" parent="1">
          <mxGeometry x="40" y="240" width="120" height="60" as="geometry" />
        </mxCell>
        <mxCell id="598ATrLCapaZfz47DnX5-18" style="edgeStyle=orthogonalEdgeStyle;rounded=0;orthogonalLoop=1;jettySize=auto;html=1;entryX=0.5;entryY=0;entryDx=0;entryDy=0;" edge="1" parent="1" source="598ATrLCapaZfz47DnX5-4" target="598ATrLCapaZfz47DnX5-17">
          <mxGeometry relative="1" as="geometry" />
        </mxCell>
        <mxCell id="598ATrLCapaZfz47DnX5-4" value="[B] View In-Stock Products" style="rounded=1;whiteSpace=wrap;html=1;" vertex="1" parent="1">
          <mxGeometry x="200" y="240" width="120" height="60" as="geometry" />
        </mxCell>
        <mxCell id="598ATrLCapaZfz47DnX5-16" style="edgeStyle=orthogonalEdgeStyle;rounded=0;orthogonalLoop=1;jettySize=auto;html=1;entryX=0;entryY=0.5;entryDx=0;entryDy=0;" edge="1" parent="1" source="598ATrLCapaZfz47DnX5-8" target="598ATrLCapaZfz47DnX5-2">
          <mxGeometry relative="1" as="geometry">
            <Array as="points">
              <mxPoint x="-60" y="370" />
              <mxPoint x="-60" y="170" />
            </Array>
          </mxGeometry>
        </mxCell>
        <mxCell id="598ATrLCapaZfz47DnX5-8" value="Show All Items (even those out of stock)" style="rounded=1;whiteSpace=wrap;html=1;" vertex="1" parent="1">
          <mxGeometry x="-40" y="340" width="120" height="60" as="geometry" />
        </mxCell>
        <mxCell id="598ATrLCapaZfz47DnX5-38" style="edgeStyle=orthogonalEdgeStyle;rounded=0;orthogonalLoop=1;jettySize=auto;html=1;entryX=0.5;entryY=0;entryDx=0;entryDy=0;" edge="1" parent="1" source="598ATrLCapaZfz47DnX5-11" target="598ATrLCapaZfz47DnX5-36">
          <mxGeometry relative="1" as="geometry" />
        </mxCell>
        <mxCell id="598ATrLCapaZfz47DnX5-11" value="[C] View Shopping Cart" style="rounded=1;whiteSpace=wrap;html=1;" vertex="1" parent="1">
          <mxGeometry x="470" y="240" width="120" height="60" as="geometry" />
        </mxCell>
        <mxCell id="598ATrLCapaZfz47DnX5-15" style="edgeStyle=orthogonalEdgeStyle;rounded=0;orthogonalLoop=1;jettySize=auto;html=1;entryX=0.5;entryY=0;entryDx=0;entryDy=0;" edge="1" parent="1" source="598ATrLCapaZfz47DnX5-13" target="598ATrLCapaZfz47DnX5-2">
          <mxGeometry relative="1" as="geometry" />
        </mxCell>
        <mxCell id="598ATrLCapaZfz47DnX5-13" value="Welcome Message" style="rounded=1;whiteSpace=wrap;html=1;" vertex="1" parent="1">
          <mxGeometry x="200" y="40" width="120" height="60" as="geometry" />
        </mxCell>
        <mxCell id="598ATrLCapaZfz47DnX5-25" style="edgeStyle=orthogonalEdgeStyle;rounded=0;orthogonalLoop=1;jettySize=auto;html=1;entryX=0.5;entryY=0;entryDx=0;entryDy=0;" edge="1" parent="1" source="598ATrLCapaZfz47DnX5-17" target="598ATrLCapaZfz47DnX5-19">
          <mxGeometry relative="1" as="geometry" />
        </mxCell>
        <mxCell id="598ATrLCapaZfz47DnX5-26" style="edgeStyle=orthogonalEdgeStyle;rounded=0;orthogonalLoop=1;jettySize=auto;html=1;entryX=0.5;entryY=0;entryDx=0;entryDy=0;" edge="1" parent="1" source="598ATrLCapaZfz47DnX5-17" target="598ATrLCapaZfz47DnX5-20">
          <mxGeometry relative="1" as="geometry" />
        </mxCell>
        <mxCell id="598ATrLCapaZfz47DnX5-17" value="Show Only In-Stock Products&lt;br&gt;[1] item 1&lt;br&gt;[2] item 2&lt;br&gt;..." style="rounded=1;whiteSpace=wrap;html=1;" vertex="1" parent="1">
          <mxGeometry x="200" y="340" width="120" height="90" as="geometry" />
        </mxCell>
        <mxCell id="598ATrLCapaZfz47DnX5-22" style="edgeStyle=orthogonalEdgeStyle;rounded=0;orthogonalLoop=1;jettySize=auto;html=1;entryX=0.5;entryY=0;entryDx=0;entryDy=0;" edge="1" parent="1" source="598ATrLCapaZfz47DnX5-19" target="598ATrLCapaZfz47DnX5-21">
          <mxGeometry relative="1" as="geometry" />
        </mxCell>
        <mxCell id="598ATrLCapaZfz47DnX5-19" value="View Item Command: item #" style="rounded=1;whiteSpace=wrap;html=1;" vertex="1" parent="1">
          <mxGeometry x="120" y="480" width="120" height="60" as="geometry" />
        </mxCell>
        <mxCell id="598ATrLCapaZfz47DnX5-31" style="edgeStyle=orthogonalEdgeStyle;rounded=0;orthogonalLoop=1;jettySize=auto;html=1;exitX=0.75;exitY=0;exitDx=0;exitDy=0;entryX=1;entryY=0.75;entryDx=0;entryDy=0;" edge="1" parent="1" source="598ATrLCapaZfz47DnX5-20" target="598ATrLCapaZfz47DnX5-2">
          <mxGeometry relative="1" as="geometry">
            <Array as="points">
              <mxPoint x="350" y="480" />
              <mxPoint x="350" y="185" />
            </Array>
          </mxGeometry>
        </mxCell>
        <mxCell id="598ATrLCapaZfz47DnX5-20" value="Back to Main Menu&lt;br&gt;Command: A" style="rounded=1;whiteSpace=wrap;html=1;" vertex="1" parent="1">
          <mxGeometry x="280" y="480" width="120" height="60" as="geometry" />
        </mxCell>
        <mxCell id="598ATrLCapaZfz47DnX5-27" style="edgeStyle=orthogonalEdgeStyle;rounded=0;orthogonalLoop=1;jettySize=auto;html=1;entryX=0.5;entryY=0;entryDx=0;entryDy=0;" edge="1" parent="1" source="598ATrLCapaZfz47DnX5-21" target="598ATrLCapaZfz47DnX5-24">
          <mxGeometry relative="1" as="geometry" />
        </mxCell>
        <mxCell id="598ATrLCapaZfz47DnX5-28" style="edgeStyle=orthogonalEdgeStyle;rounded=0;orthogonalLoop=1;jettySize=auto;html=1;" edge="1" parent="1" source="598ATrLCapaZfz47DnX5-21" target="598ATrLCapaZfz47DnX5-23">
          <mxGeometry relative="1" as="geometry" />
        </mxCell>
        <mxCell id="598ATrLCapaZfz47DnX5-21" value="Display Item Details and Stats" style="rounded=1;whiteSpace=wrap;html=1;" vertex="1" parent="1">
          <mxGeometry x="120" y="580" width="120" height="60" as="geometry" />
        </mxCell>
        <mxCell id="598ATrLCapaZfz47DnX5-34" style="edgeStyle=orthogonalEdgeStyle;rounded=0;orthogonalLoop=1;jettySize=auto;html=1;entryX=0.5;entryY=0;entryDx=0;entryDy=0;" edge="1" parent="1" source="598ATrLCapaZfz47DnX5-23" target="598ATrLCapaZfz47DnX5-32">
          <mxGeometry relative="1" as="geometry" />
        </mxCell>
        <mxCell id="598ATrLCapaZfz47DnX5-35" style="edgeStyle=orthogonalEdgeStyle;rounded=0;orthogonalLoop=1;jettySize=auto;html=1;entryX=0.5;entryY=0;entryDx=0;entryDy=0;" edge="1" parent="1" source="598ATrLCapaZfz47DnX5-23" target="598ATrLCapaZfz47DnX5-33">
          <mxGeometry relative="1" as="geometry" />
        </mxCell>
        <mxCell id="598ATrLCapaZfz47DnX5-23" value="Add to Cart&lt;br&gt;Command: A" style="rounded=1;whiteSpace=wrap;html=1;" vertex="1" parent="1">
          <mxGeometry x="40" y="680" width="120" height="60" as="geometry" />
        </mxCell>
        <mxCell id="598ATrLCapaZfz47DnX5-29" style="edgeStyle=orthogonalEdgeStyle;rounded=0;orthogonalLoop=1;jettySize=auto;html=1;exitX=1;exitY=0.25;exitDx=0;exitDy=0;entryX=1;entryY=0.75;entryDx=0;entryDy=0;" edge="1" parent="1" source="598ATrLCapaZfz47DnX5-24" target="598ATrLCapaZfz47DnX5-17">
          <mxGeometry relative="1" as="geometry">
            <Array as="points">
              <mxPoint x="320" y="700" />
              <mxPoint x="420" y="700" />
              <mxPoint x="420" y="408" />
            </Array>
          </mxGeometry>
        </mxCell>
        <mxCell id="598ATrLCapaZfz47DnX5-24" value="Back to In-Stock Products&lt;br&gt;Command: B" style="rounded=1;whiteSpace=wrap;html=1;" vertex="1" parent="1">
          <mxGeometry x="200" y="680" width="120" height="60" as="geometry" />
        </mxCell>
        <mxCell id="598ATrLCapaZfz47DnX5-32" value="Proceed to Check Out&lt;br&gt;Command: A" style="rounded=1;whiteSpace=wrap;html=1;" vertex="1" parent="1">
          <mxGeometry x="-40" y="780" width="120" height="60" as="geometry" />
        </mxCell>
        <mxCell id="598ATrLCapaZfz47DnX5-44" style="edgeStyle=orthogonalEdgeStyle;rounded=0;orthogonalLoop=1;jettySize=auto;html=1;" edge="1" parent="1" source="598ATrLCapaZfz47DnX5-33">
          <mxGeometry relative="1" as="geometry">
            <mxPoint x="420.0000000000002" y="700" as="targetPoint" />
          </mxGeometry>
        </mxCell>
        <mxCell id="598ATrLCapaZfz47DnX5-33" value="Keep Shopping&lt;br&gt;Command: B" style="rounded=1;whiteSpace=wrap;html=1;" vertex="1" parent="1">
          <mxGeometry x="120" y="780" width="120" height="60" as="geometry" />
        </mxCell>
        <mxCell id="598ATrLCapaZfz47DnX5-42" style="edgeStyle=orthogonalEdgeStyle;rounded=0;orthogonalLoop=1;jettySize=auto;html=1;entryX=0.5;entryY=0;entryDx=0;entryDy=0;" edge="1" parent="1" source="598ATrLCapaZfz47DnX5-36" target="598ATrLCapaZfz47DnX5-41">
          <mxGeometry relative="1" as="geometry" />
        </mxCell>
        <mxCell id="598ATrLCapaZfz47DnX5-43" style="edgeStyle=orthogonalEdgeStyle;rounded=0;orthogonalLoop=1;jettySize=auto;html=1;entryX=0.5;entryY=0;entryDx=0;entryDy=0;" edge="1" parent="1" source="598ATrLCapaZfz47DnX5-36" target="598ATrLCapaZfz47DnX5-40">
          <mxGeometry relative="1" as="geometry" />
        </mxCell>
        <mxCell id="598ATrLCapaZfz47DnX5-36" value="Show Shopping Cart" style="rounded=1;whiteSpace=wrap;html=1;" vertex="1" parent="1">
          <mxGeometry x="470" y="340" width="120" height="60" as="geometry" />
        </mxCell>
        <mxCell id="598ATrLCapaZfz47DnX5-45" style="edgeStyle=orthogonalEdgeStyle;rounded=0;orthogonalLoop=1;jettySize=auto;html=1;entryX=1;entryY=0.5;entryDx=0;entryDy=0;" edge="1" parent="1" source="598ATrLCapaZfz47DnX5-40" target="598ATrLCapaZfz47DnX5-2">
          <mxGeometry relative="1" as="geometry">
            <Array as="points">
              <mxPoint x="440" y="470" />
              <mxPoint x="440" y="170" />
            </Array>
          </mxGeometry>
        </mxCell>
        <mxCell id="598ATrLCapaZfz47DnX5-40" value="Back to Main Menu&lt;br&gt;Command: A" style="rounded=1;whiteSpace=wrap;html=1;" vertex="1" parent="1">
          <mxGeometry x="470" y="440" width="120" height="60" as="geometry" />
        </mxCell>
        <mxCell id="598ATrLCapaZfz47DnX5-41" value="Checkout&lt;br&gt;Command: B" style="rounded=1;whiteSpace=wrap;html=1;" vertex="1" parent="1">
          <mxGeometry x="630" y="440" width="120" height="60" as="geometry" />
        </mxCell>
      </root>
    </mxGraphModel>
  </diagram>
</mxfile>
